<svg viewBox="0.11 -2.65 537.45 329.87" id="Ebene_1" xmlns="http://www.w3.org/2000/svg"><defs><style>.cls-1{fill:#1d1d1b;stroke-width:0px;}.cls-2{fill:none;stroke:#1d1d1b;stroke-miterlimit:3.86;stroke-width:4.6px;}</style></defs><path d="M401.91,145.82c-1.7-10.68-11.59-67.99-14.27-84.78,0,0-12.66-47.56-13.98-55.8-.51-3.21,3.55-4.47,6.79-4.98,26.19-4.12,51.32,12.89,55.45,38.83,2.72,17.09-11.76,31.26-29.01,33.98-11.25,1.77-37.22-12.76-46.67-19.56M241,117.72c7.29,14.03,6.73,41.02,24.34,36.99,5.32-1.22,4.88-12,4.03-17.34-1.7-10.68-3.67-13.07-5.37-23.75,1.53,9.61,16.83,43.95,19.61,38.44,7.7-15.24-2.72-44.56-1.21-44.59,4.15-.78,15.7,42.13,15.7,42.13,0,0-3.09-12.35-6.22-22.55-2.87-9.37-8.75-15.31,1.58-22.99,12.79-9.7,19.81,18.91,19.81,18.91,0,0,6.45,21.22,7.36,17.3,3.22-13.91-14.07-48.75,7.1-44.28,1.59.34,12.66,6.62,10.6,5.35-35.81-22.14-14.62,42.49-.33,32.7,10.03-6.88,4.6-19.23,2.7-31.13-2.46-15.41-8.44-42.45-8.44-42.45,0,0,11.59,57.75,18.1,74.79,1.65,4.33,5.34,6.59,9.96,5.86,4.62-.73,6.42-6.68,6.73-11.73M423.99,95.95c-.78-4.88-4.33-9.33-9.26-8.56-7.86,1.24-7.31,11.63-6.06,19.42,1.58,9.92,7,21.11,17.01,19.54,5.39-.85,5.37-5.96,6.26-11.27,1.69-9.18-1.48-20.28-2.96-29.59,2.34,14.65,12.47,39.54,17.7,37.8,9.94-3.31,4.5-31.16,2.77-41.99,6.42,16.51,7.6,41.45,18.42,40.28,12.77-4.55,7.65-15.44,6.04-25.51-1.12-7.02-1.78-11.14-2.89-18.16,4.12,14.71,6.85,26.14,14.82,41.47,23.54-18.72,18.36-85.29,11.87-101.28-9.1-22.43-17.32-2.65-11.39,28.64,3.4,17.92,8.1,27.14,15.24,44.51,3.4,8.26,6.61,21.21,12.84,21.77,7.92.72,9.95-8.39,12.65-16.4M21.72,277c11.4-7.57-3.9-101.02-7.87-129.76-2.56-18.6-2.71-41.24,15.68-45.46,16.87-3.87,30.03,7.28,38.47,22.26,11.05,19.62,18,30.6,23.04,52.28,4.24,18.22,13.4,35.08,11.99,52.24-9.1,2.67-19.26-29.8-31.27-47.02-8.18-11.76-16.19-24.2-30.17-20.99-17.48,4.01-42.77,7.43-38.75,24.74,1.44,6.17,9.24,7.4,15.47,5.97,25.53-5.85,34.93-23.23,60.46-29.08,20.51-4.7,38.28,53.68,38.28,53.68,14.31,20.06-10.29-21.4-13.09-33.45-2.45-10.54-7.01-22.52,6.34-28.32,19.52-7.93,29.5,49.23,30.39,48.61,2.92-2.03,1.65-40.11-8.22-56.43.22-2.27,19.53,50.5,20.54,48.33,1.49-3.21-25.2-41.07-11.99-51.88,24.35-19.91,30.2,27.61,45.56,40.2,3.38-2.1-1.59-23.52-3.58-32.11-1.82-7.83-3.25-19.66,4.03-22.27,10.13-3.62,18.67,1.09,27.28,7.84-6.34-4.31-18.66-9.79-26.25-8.05-7.9,1.81-6.68,14.83-4.86,22.66,2.17,9.33,14.44,22.65,23.86,20.49,7.14-1.64,8.29-10.46,6.65-17.54-2.77-11.89-6.57-18.48-9.34-30.38,2.73,11.74,6.54,18.33,9.27,30.08,1.44,6.17,5.48,12.54,11.71,11.11,4.1-.94,6.32-2.4,9.77-4.78M287.94,182.39c-53.06,12.16-128.89,48.25-154.04,73.39-29.58,29.58,9.27,60.34,25.46,64.79,42.07,11.54,117.53-2.98,149.81-8.11,29.08-4.68,46.93-2.22,75.85-8.81,17.58-3.95,39.2-5.67,54.38-14.6,6.87-3.96,6.47-21.11,6.47-28.57,0-14.65,2.34-28.36-.29-46.18l-5.53-32.95M286.19,182.06c15.5,7.03,22.13,44.4,31.78,57.18,10.28,13.6,20.41,48.61,9.71,69.73M309.95,223.45c24.13-3.22,83.32-14.42,106.4-21.72,20.31-6.43,54.08-40.19-36.52-32.24-33.08,2.9-51.96,8.42-88.39,16M319.02,240.14c30.6-5.11,125.34-22.23,124.29-37.59M234.71,199.41c-3.04,4.69-8.11,10.78-2.86,19.16,7.81,12.49,27.53,11.88,34.4,11.88,11.35,0,30.9-1.75,43.66-6.12M441.61,191.6s13.36-7.63,21.33-1.25c1.73,2.02,11.42,13.79,11.47,14.01.15.27-15.59-.31-19.75-.31-3.38,0-13.04,3.84-18.9,7.2M275.66,189.85l3.29,3.53M281.79,196.98l2.73,3.92M286.65,204.43l2.22,3.86M290.5,212.18l1.77,3.82M293.72,219.96l1.64,3.53M302.21,199.72c29.47-4.15,94.26-27.2,129.57-8.12" class="cls-2"></path><path d="M515.5,4.8c0-.43.43-1.22,1.33-2,2.16-1.88,5.25-3.02,8.66-3.02,7.17,0,12.07,4.82,12.07,11.6s-4.86,11.64-12.19,11.64-11.09-3.72-11.09-10.46c0-2.63.39-4.78,1.65-6.82-.31-.31-.43-.59-.43-.94ZM518.4,6.02c-.74,1.41-1.84,3.06-1.84,6.55,0,5.29,3.33,8.39,8.9,8.39,5.84,0,9.96-4,9.96-9.52s-4.08-9.6-9.99-9.6c-3.1,0-5.64.98-7.17,2.63.24.2.35.47.35.78v.12c0,.31-.12.51-.2.67ZM532.04,16.41c0,.71-.47,1.18-1.22,1.18-.82,0-1.57-.71-2.67-1.84-2.43-2.55-3.57-4.27-3.57-4.78,0-.43.28-.78.63-.86,1.61-.43,2.59-.82,2.59-1.96,0-1.02-.75-1.69-2-1.69-.59,0-1.41.2-2.39.55-.27,1.76-.35,3.61-.35,5.57,0,2.31.35,3.8.35,4.39,0,.94-.47,1.49-1.29,1.49-1.53,0-1.72-2.04-1.72-6.66,0-3.49.39-5.64.82-6.35.55-.9,2.31-1.61,4.63-1.61,2.9,0,4.78,1.72,4.78,4.23,0,1.49-.86,2.59-2.63,3.29,1.84,2.7,4.04,3.68,4.04,5.06Z" class="cls-1"></path></svg>