<svg width="174" height="42" viewBox="0 0 174 42" fill="none" xmlns="http://www.w3.org/2000/svg">
<mask id="path-1-inside-1_4140_1954" fill="white">
<path d="M0 0H173.878V42H0V0Z"/>
</mask>
<path d="M0 0H173.878V42H0V0Z" fill="white"/>
<path d="M0 0V-2H-2V0H0ZM173.878 0H175.878V-2H173.878V0ZM173.878 42V44H175.878V42H173.878ZM0 42H-2V44H0V42ZM0 2H173.878V-2H0V2ZM171.878 0V42H175.878V0H171.878ZM173.878 40H0V44H173.878V40ZM2 42V0H-2V42H2Z" fill="black" mask="url(#path-1-inside-1_4140_1954)"/>
<path fill-rule="evenodd" clip-rule="evenodd" d="M24.7999 29.0537C25.6302 28.2245 26.05 26.7718 26.05 24.7028C26.05 21.8319 24.9649 20.2206 22.7934 19.8693V19.7918C24.656 19.345 25.5946 17.8711 25.5946 15.3608C25.5946 13.2866 25.1913 11.8773 24.4023 11.1308C23.6082 10.3833 22.1121 10.0098 19.9174 10.0098H10.5684V30.3054H20.4248C22.5025 30.3054 23.9599 29.8885 24.7999 29.0537ZM14.1792 13.2458H19.3326C21.0632 13.2458 21.9275 14.0605 21.9275 15.6868C21.9275 16.9097 21.7305 17.682 21.3365 18.0255C20.941 18.3557 20.0256 18.5292 18.5967 18.5292H14.1792V13.2458ZM18.1372 27.0652H14.1792V21.3706H18.7895C20.3841 21.3706 21.3788 21.5297 21.779 21.8412C22.1843 22.1605 22.3906 22.938 22.3906 24.1629C22.3906 25.3439 22.1962 26.1173 21.811 26.4856C21.4242 26.8503 20.6208 27.0327 19.4027 27.0327L18.1372 27.0652Z" fill="#1A171B"/>
<path fill-rule="evenodd" clip-rule="evenodd" d="M41.8418 27.0654H33.2313V21.3217H40.3845V18.4803H33.2313V13.246H41.7552V10.0099H29.624V30.304H41.8418V27.0654Z" fill="#1A171B"/>
<path fill-rule="evenodd" clip-rule="evenodd" d="M49.4659 22.5203H54.661C56.5923 22.5203 57.5603 23.5654 57.5603 25.6587V30.3036H61.1686V24.889C61.1686 22.3968 60.116 21.0857 58.0079 20.9483V20.8072C59.3683 20.5262 60.2795 19.9992 60.7251 19.2502C61.1582 18.5021 61.3821 18.0392 61.3821 15.9841C61.3821 13.725 60.9375 12.1658 60.0562 11.2995C59.178 10.4388 57.5639 10.01 55.2345 10.01H45.8535V30.3036H49.4659V22.5203ZM49.4659 13.2461H54.9003C56.0802 13.2461 56.846 13.4579 57.1962 13.8815C57.5396 14.302 57.7155 15.2345 57.7155 16.6847C57.7155 18.1043 57.5169 18.1043 57.1101 18.578C56.7032 19.044 55.8832 19.2812 54.6445 19.2812H49.4659V13.2461Z" fill="#1A171B"/>
<path fill-rule="evenodd" clip-rule="evenodd" d="M73.4486 30.4843C77.0316 30.4843 79.3481 30.0623 80.3805 29.2109C81.4232 28.3642 81.9358 26.4744 81.9358 23.5369L81.8734 19.5135H73.5017V22.3435H78.2827L78.2672 23.181C78.2672 24.9199 78.0006 26.0182 77.4684 26.4858C76.9362 26.9497 75.6867 27.1801 73.7131 27.1801C71.6885 27.1801 70.3941 26.9058 69.8403 26.3581C69.2843 25.808 69.0064 24.5226 69.0064 22.512L68.9754 19.9098L68.9904 17.8764C68.9904 15.8182 69.273 14.5163 69.8341 13.9599C70.3941 13.4103 71.7153 13.1318 73.807 13.1318C75.7341 13.1318 76.9362 13.2868 77.4075 13.6138C77.8913 13.9367 78.161 14.7648 78.2321 16.0899H81.8734C81.8734 13.4495 81.3887 11.7463 80.4037 10.9817C79.4208 10.216 77.2379 9.8291 73.8487 9.8291C71.2718 9.8291 69.4437 10.0776 68.3587 10.572C67.2809 11.0659 66.481 12.0257 65.9514 13.4578C65.5249 14.6238 65.3037 17.4352 65.3037 21.8755C65.3037 25.3513 65.8452 27.6569 66.9132 28.7919C67.9786 29.9197 70.1615 30.4843 73.4486 30.4843Z" fill="#1A171B"/>
<path fill-rule="evenodd" clip-rule="evenodd" d="M93.9324 27.3923C91.8599 27.3923 90.5933 27.2347 90.1225 26.9139C89.6553 26.5967 89.4268 26.6752 89.4268 25.2556L89.4134 24.8252H85.8959L85.9113 25.5666C85.9113 27.9285 86.4069 28.5511 87.3862 29.3255C88.3712 30.0988 90.3468 30.4842 93.3445 30.4842C96.6713 30.4842 98.8202 30.088 99.7964 29.3063C100.771 28.5123 101.256 26.7708 101.256 24.073C101.256 21.8852 100.847 20.4376 100.015 19.7469C99.1812 19.0572 97.3453 18.6233 94.51 18.4559C92.1218 18.319 90.7078 18.1149 90.2782 17.8587C89.8512 17.5952 89.6321 16.8348 89.6321 15.5536C89.6321 14.4744 89.9044 13.7645 90.4283 13.4277C90.945 13.0883 92.0661 12.9214 93.7798 12.9214C95.2217 12.9214 96.1473 13.0681 96.5367 13.3626C96.9229 13.653 97.1601 13.4267 97.2509 14.5679C97.2509 14.6521 97.2612 14.7962 97.2793 14.9822H100.796V14.2073C100.796 12.1088 100.305 11.6402 99.309 10.9113C98.3086 10.1875 96.3866 9.82898 93.5281 9.82898C90.5015 9.82898 88.4955 10.2242 87.4852 11.0105C86.4709 11.7973 85.9722 13.3766 85.9722 15.7437C85.9722 18.0648 86.3894 19.5795 87.2264 20.2785C88.0654 20.9868 89.9858 21.4332 92.9861 21.6202L94.985 21.7519C96.1117 21.8304 96.8492 22.0211 97.1797 22.345C97.5284 22.6627 97.696 23.3131 97.696 24.2973C97.696 25.6265 97.467 26.4748 97.0173 26.84C96.5826 27.2068 95.5445 27.3923 93.9324 27.3923Z" fill="#1A171B"/>
<path fill-rule="evenodd" clip-rule="evenodd" d="M108.623 30.3038H112.233V13.458H117.921V10.0096H103.135V13.458H108.623V30.3038Z" fill="#1A171B"/>
<path fill-rule="evenodd" clip-rule="evenodd" d="M132.916 27.0654H124.306V21.3217H131.459V18.4803H124.306V13.246H132.831V10.0099H120.696V30.304H132.916V27.0654Z" fill="#1A171B"/>
<path fill-rule="evenodd" clip-rule="evenodd" d="M137.858 30.3051H141.468V10.011H137.858V30.3051Z" fill="#1A171B"/>
<path fill-rule="evenodd" clip-rule="evenodd" d="M150.259 18.6607L150.235 15.9991L150.191 14.6782L150.135 13.337H150.275L150.871 14.7918L151.49 16.2528C152.063 17.6399 152.487 18.6117 152.754 19.1644L158.189 30.3052H164.309V10.0095H160.696V21.6948L160.728 24.3145L160.769 25.6195L160.811 26.9322H160.688L159.963 25.2661L159.234 23.6114C158.658 22.3153 158.156 21.2113 157.716 20.2953L152.768 10.0095H146.65V30.3052H150.259V18.6607Z" fill="#1A171B"/>
</svg>
