<?xml version="1.0" encoding="utf-8"?>
<!-- Generator: Adobe Illustrator 27.7.0, SVG Export Plug-In . SVG Version: 6.00 Build 0)  -->
<svg version="1.1" id="Streger" xmlns="http://www.w3.org/2000/svg" xmlns:xlink="http://www.w3.org/1999/xlink" x="0px" y="0px"
	 viewBox="0 0 462.8 100.34" style="enable-background:new 0 0 462.8 100.34;" xml:space="preserve">
<style type="text/css">
	.st0{fill:#FFFFFF;}
</style>
<g>
	<g>
		<path class="st0" d="M263.46,80.32h11.8v1.97h-9.39v6.75h7.48v1.97h-7.48v7.1h9.58v1.97h-11.99V80.32z"/>
		<path class="st0" d="M278.01,97.56l1.67-1.59c1.51,1.65,3.29,2.24,4.83,2.24c1.46,0,3.35-0.76,3.35-2.27
			c0-1.54-2.16-1.89-3.83-2.38c-3.37-1-5.86-1.73-5.86-4.48c0-2.46,2.19-4.16,5.59-4.16c2.05,0,4.56,0.86,5.72,2.43l-1.57,1.49
			c-0.86-1.08-2.81-1.81-4.27-1.81c-1.43,0-3.21,0.67-3.21,2.02c0,1.21,1.57,1.57,3.59,2.19c2.43,0.75,6.07,1.27,6.07,4.64
			c0,2.62-2.51,4.45-5.83,4.45C280.77,100.34,278.53,98.16,278.01,97.56z"/>
		<path class="st0" d="M294.48,95.76v-8.61h-2.27V85.2h2.27v-4.89h2.24v4.89h4.4v1.94h-4.4v9.12c0,1.29,0.32,2.08,1.19,2.08
			c0.86,0,1.62-0.89,2.08-1.86l1.43,0.92c-0.65,1.46-1.94,2.94-3.89,2.94C295.43,100.34,294.48,98.91,294.48,95.76z"/>
		<path class="st0" d="M303.34,98.59c0-1,0.78-1.78,1.75-1.78c1,0,1.78,0.78,1.78,1.78c0,0.97-0.78,1.75-1.78,1.75
			C304.12,100.34,303.34,99.56,303.34,98.59z"/>
		<path class="st0" d="M316.43,83.15c-0.89,1.11-2.02,1.75-3.46,2.27l-0.57-1.81c1.54-0.59,3.29-1.78,4.4-3.29h1.86v19.76h-2.24
			V83.15z"/>
		<path class="st0" d="M330.58,93.41c-0.24,0.08-0.54,0.11-0.92,0.11c-3.73,0-6.75-3.02-6.75-6.75c0-3.72,3.02-6.72,6.75-6.72
			c3.72,0,6.75,3,6.75,6.72c0,2.08-1.16,3.83-1.97,4.94l-6.07,8.37h-2.75L330.58,93.41z M334.14,86.77c0-2.48-2-4.48-4.48-4.48
			c-2.48,0-4.48,2-4.48,4.48s2,4.51,4.48,4.51C332.14,91.28,334.14,89.25,334.14,86.77z"/>
		<path class="st0" d="M338.68,90.22c0-6.64,2.48-10.18,6.75-10.18s6.75,3.54,6.75,10.18c0,6.56-2.48,10.12-6.75,10.12
			S338.68,96.78,338.68,90.22z M349.88,90.22c0-5.56-1.73-8.1-4.45-8.1s-4.45,2.54-4.45,8.1c0,5.53,1.73,8.07,4.45,8.07
			S349.88,95.76,349.88,90.22z"/>
		<path class="st0" d="M363.76,95.05h-9.72v-2l8.04-12.74h2.7l-8.26,12.74h7.26v-5.64h2.32v12.66h-2.35V95.05z"/>
	</g>
	<path class="st0" d="M14.19,58.69v5.05H0V0h14.54v20.64c2.09-3.4,6.97-5.75,12.63-5.75c11.23,0,21.86,10.71,21.86,24.64
		c0,14.02-10.19,25.08-22.21,25.08C20.46,64.62,16.89,62,14.19,58.69z M35.27,39.54c0-6.36-4.35-12.19-10.71-12.19
		s-10.71,5.83-10.71,12.19c0,6.44,4.35,12.28,10.71,12.28S35.27,45.98,35.27,39.54z"/>
	<path class="st0" d="M54.51,46.15V15.76h14.54v27.69c0,3.83,0.61,9.23,6.79,9.23c6.18,0,6.97-5.83,6.97-9.06V15.76h14.54v47.98
		H83.34v-6.36h-0.52c-2.61,4.79-7.05,7.23-13.41,7.23C59.13,64.62,54.51,56.17,54.51,46.15z"/>
	<path class="st0" d="M105.56,15.76h14.02v6.36h0.52c2.61-4.79,7.75-7.23,14.11-7.23c10.28,0,14.89,8.45,14.89,18.46v30.39h-14.54
		V36.05c0-3.83-0.61-9.23-6.79-9.23c-6.18,0-7.66,5.83-7.66,9.06v27.87h-14.54V15.76z"/>
	<path class="st0" d="M154.35,39.54c0-13.93,10.62-24.64,21.86-24.64c5.66,0,10.54,2.35,12.63,5.75V0h14.54v63.74h-14.19v-5.05
		c-2.7,3.31-6.27,5.92-12.63,5.92C164.53,64.62,154.35,53.56,154.35,39.54z M189.53,39.54c0-6.36-4.35-12.19-10.71-12.19
		s-10.71,5.83-10.71,12.19c0,6.44,4.35,12.28,10.71,12.28S189.53,45.98,189.53,39.54z"/>
	<path class="st0" d="M212.15,76.54l5.4-12.02c2.09,1.83,8.27,4.96,13.85,4.96c5.66,0,12.71-1.39,12.71-10.01v-3.05
		c-2.53,3.31-6.79,5.4-12.54,5.4c-11.32,0-22.73-9.49-22.73-23.25s10.71-23.69,22.73-23.69c5.75,0,9.93,2,12.37,5.83v-4.96h13.93
		v44.85c0,15.85-12.19,21.42-26.21,21.42C225.64,82.03,218.68,80.81,212.15,76.54z M244.02,38.58c0-6.18-4.27-10.88-10.71-10.88
		c-6.36,0-10.71,4.7-10.71,10.88c0,6.01,4.35,10.89,10.71,10.89C239.75,49.46,244.02,44.59,244.02,38.58z"/>
	<path class="st0" d="M263.41,50.86c0-11.06,6.44-17.07,29.69-17.07v-1.04c0-3.31-2.79-5.75-7.4-5.75c-5.14,0-7.4,1.83-8.88,5.14
		l-12.1-2.96c3.22-8.53,9.93-14.28,22.03-14.28c12.63,0,20.81,5.83,20.81,17.15v17.94c0,3.74,0.87,4.7,2.61,4.7
		c0.87,0,1.48-0.09,2.61-0.35v9.14c-2.35,0.61-5.05,1.05-7.14,1.05c-6.62,0-10.36-1.66-11.32-6.71c-2.96,4.27-7.05,6.79-14.46,6.79
		C268.2,64.62,263.41,59.3,263.41,50.86z M293.02,46.15v-3.48c-13.15,0-15.67,2.61-15.67,6.62c0,3.31,2.87,5.23,6.27,5.23
		C290.15,54.51,293.02,50.59,293.02,46.15z"/>
	<path class="st0" d="M316.7,50.86c0-11.06,6.44-17.07,29.69-17.07v-1.04c0-3.31-2.79-5.75-7.4-5.75c-5.14,0-7.4,1.83-8.88,5.14
		l-12.1-2.96c3.22-8.53,9.93-14.28,22.03-14.28c12.63,0,20.81,5.83,20.81,17.15v17.94c0,3.74,0.87,4.7,2.61,4.7
		c0.87,0,1.48-0.09,2.61-0.35v9.14c-2.35,0.61-5.05,1.05-7.14,1.05c-6.62,0-10.36-1.66-11.32-6.71c-2.96,4.27-7.05,6.79-14.46,6.79
		C321.49,64.62,316.7,59.3,316.7,50.86z M346.31,46.15v-3.48c-13.15,0-15.67,2.61-15.67,6.62c0,3.31,2.87,5.23,6.27,5.23
		C343.44,54.51,346.31,50.59,346.31,46.15z"/>
	<path class="st0" d="M370.97,15.76h14.02v7.14h0.52c2.61-4.79,6.18-8.01,12.54-8.01c10.28,0,16.28,11.41,10.62,23.6h-12.37
		c2.96-5.57,2.35-11.67-3.57-11.67c-6.18,0-7.23,6.44-7.23,12.71v24.21h-14.54V15.76z"/>
	<path class="st0" d="M413.77,39.54c0-13.93,10.62-24.64,21.86-24.64c5.66,0,10.54,2.35,12.63,5.75V0h14.54v63.74h-14.19v-5.05
		c-2.7,3.31-6.27,5.92-12.63,5.92C423.96,64.62,413.77,53.56,413.77,39.54z M448.95,39.54c0-6.36-4.35-12.19-10.71-12.19
		c-6.36,0-10.71,5.83-10.71,12.19c0,6.44,4.35,12.28,10.71,12.28C444.6,51.81,448.95,45.98,448.95,39.54z"/>
</g>
</svg>
